# MagicaVoxel @ Ephtracy

# group
o 

# material
mtllib Dientes.mtl
usemtl palette

# normals
vn -1 0 0
vn 1 0 0
vn 0 0 1
vn 0 0 -1
vn 0 -1 0
vn 0 1 0

# texcoords
vt 0.146484 0.5
vt 0.958984 0.5

# verts
v -1 0 0.7
v -1 0 0.4
v -1 0 -0.4
v -1 0 -0.7
v -1 0.3 0.4
v -1 0.3 0.1
v -1 0.3 -0.1
v -1 0.3 -0.4
v -1 0.7 0.7
v -1 0.7 0.4
v -1 0.7 0.1
v -1 0.7 -0.1
v -1 0.7 -0.4
v -1 0.7 -0.7
v -0.9 0.7 0.7
v -0.9 0.7 0.4
v -0.9 0.7 0.1
v -0.9 0.7 -0.1
v -0.9 0.7 -0.4
v -0.9 0.7 -0.7
v -0.9 1 0.7
v -0.9 1 0.4
v -0.9 1 0.1
v -0.9 1 -0.1
v -0.9 1 -0.4
v -0.9 1 -0.7
v -0.8 1 0.7
v -0.8 1 0.4
v -0.8 1 0.1
v -0.8 1 -0.1
v -0.8 1 -0.4
v -0.8 1 -0.7
v -0.8 1.3 0.7
v -0.8 1.3 0.4
v -0.8 1.3 0.1
v -0.8 1.3 -0.1
v -0.8 1.3 -0.4
v -0.8 1.3 -0.7
v -0.7 1.3 0.7
v -0.7 1.3 0.4
v -0.7 1.3 0.1
v -0.7 1.3 -0.1
v -0.7 1.3 -0.4
v -0.7 1.3 -0.7
v -0.7 1.5 0.7
v -0.7 1.5 0.4
v -0.7 1.5 0.1
v -0.7 1.5 -0.1
v -0.7 1.5 -0.4
v -0.7 1.5 -0.7
v -0.6 1.5 0.7
v -0.6 1.5 0.4
v -0.6 1.5 0.1
v -0.6 1.5 -0.1
v -0.6 1.5 -0.4
v -0.6 1.5 -0.7
v -0.6 1.6 0.7
v -0.6 1.6 0.4
v -0.6 1.6 0.1
v -0.6 1.6 -0.1
v -0.6 1.6 -0.4
v -0.6 1.6 -0.7
v -0.5 1.6 0.7
v -0.5 1.6 0.4
v -0.5 1.6 0.1
v -0.5 1.6 -0.1
v -0.5 1.6 -0.4
v -0.5 1.6 -0.7
v -0.5 1.7 0.7
v -0.5 1.7 0.4
v -0.5 1.7 0.1
v -0.5 1.7 -0.1
v -0.5 1.7 -0.4
v -0.5 1.7 -0.7
v -0.4 1.7 0.7
v -0.4 1.7 0.4
v -0.4 1.7 0.1
v -0.4 1.7 -0.1
v -0.4 1.7 -0.4
v -0.4 1.7 -0.7
v -0.4 1.8 0.7
v -0.4 1.8 0.4
v -0.4 1.8 0.1
v -0.4 1.8 -0.1
v -0.4 1.8 -0.4
v -0.4 1.8 -0.7
v 0.4 1.6 0.4
v 0.4 1.6 0.1
v 0.4 1.6 -0.1
v 0.4 1.6 -0.4
v 0.4 1.7 0.4
v 0.4 1.7 0.1
v 0.4 1.7 -0.1
v 0.4 1.7 -0.4
v 0.5 1.5 0.4
v 0.5 1.5 0.1
v 0.5 1.5 -0.1
v 0.5 1.5 -0.4
v 0.5 1.6 0.4
v 0.5 1.6 0.1
v 0.5 1.6 -0.1
v 0.5 1.6 -0.4
v 0.6 1.3 0.4
v 0.6 1.3 0.1
v 0.6 1.3 -0.1
v 0.6 1.3 -0.4
v 0.6 1.5 0.4
v 0.6 1.5 0.1
v 0.6 1.5 -0.1
v 0.6 1.5 -0.4
v 0.7 1 0.4
v 0.7 1 0.1
v 0.7 1 -0.1
v 0.7 1 -0.4
v 0.7 1.3 0.4
v 0.7 1.3 0.1
v 0.7 1.3 -0.1
v 0.7 1.3 -0.4
v 0.8 0.7 0.4
v 0.8 0.7 0.1
v 0.8 0.7 -0.1
v 0.8 0.7 -0.4
v 0.8 1 0.4
v 0.8 1 0.1
v 0.8 1 -0.1
v 0.8 1 -0.4
v 0.9 0.3 0.4
v 0.9 0.3 0.1
v 0.9 0.3 -0.1
v 0.9 0.3 -0.4
v 0.9 0.7 0.4
v 0.9 0.7 0.1
v 0.9 0.7 -0.1
v 0.9 0.7 -0.4
v -0.9 0.3 0.4
v -0.9 0.3 0.1
v -0.9 0.3 -0.1
v -0.9 0.3 -0.4
v -0.9 0.7 0.4
v -0.9 0.7 0.1
v -0.9 0.7 -0.1
v -0.9 0.7 -0.4
v -0.8 0.7 0.4
v -0.8 0.7 0.1
v -0.8 0.7 -0.1
v -0.8 0.7 -0.4
v -0.8 1 0.4
v -0.8 1 0.1
v -0.8 1 -0.1
v -0.8 1 -0.4
v -0.7 1 0.4
v -0.7 1 0.1
v -0.7 1 -0.1
v -0.7 1 -0.4
v -0.7 1.3 0.4
v -0.7 1.3 0.1
v -0.7 1.3 -0.1
v -0.7 1.3 -0.4
v -0.6 1.3 0.4
v -0.6 1.3 0.1
v -0.6 1.3 -0.1
v -0.6 1.3 -0.4
v -0.6 1.5 0.4
v -0.6 1.5 0.1
v -0.6 1.5 -0.1
v -0.6 1.5 -0.4
v -0.5 1.5 0.4
v -0.5 1.5 0.1
v -0.5 1.5 -0.1
v -0.5 1.5 -0.4
v -0.5 1.6 0.4
v -0.5 1.6 0.1
v -0.5 1.6 -0.1
v -0.5 1.6 -0.4
v -0.4 1.6 0.4
v -0.4 1.6 0.1
v -0.4 1.6 -0.1
v -0.4 1.6 -0.4
v -0.4 1.7 0.4
v -0.4 1.7 0.1
v -0.4 1.7 -0.1
v -0.4 1.7 -0.4
v 0.4 1.7 0.7
v 0.4 1.7 0.4
v 0.4 1.7 0.1
v 0.4 1.7 -0.1
v 0.4 1.7 -0.4
v 0.4 1.7 -0.7
v 0.4 1.8 0.7
v 0.4 1.8 0.4
v 0.4 1.8 0.1
v 0.4 1.8 -0.1
v 0.4 1.8 -0.4
v 0.4 1.8 -0.7
v 0.5 1.6 0.7
v 0.5 1.6 0.4
v 0.5 1.6 0.1
v 0.5 1.6 -0.1
v 0.5 1.6 -0.4
v 0.5 1.6 -0.7
v 0.5 1.7 0.7
v 0.5 1.7 0.4
v 0.5 1.7 0.1
v 0.5 1.7 -0.1
v 0.5 1.7 -0.4
v 0.5 1.7 -0.7
v 0.6 1.5 0.7
v 0.6 1.5 0.4
v 0.6 1.5 0.1
v 0.6 1.5 -0.1
v 0.6 1.5 -0.4
v 0.6 1.5 -0.7
v 0.6 1.6 0.7
v 0.6 1.6 0.4
v 0.6 1.6 0.1
v 0.6 1.6 -0.1
v 0.6 1.6 -0.4
v 0.6 1.6 -0.7
v 0.7 1.3 0.7
v 0.7 1.3 0.4
v 0.7 1.3 0.1
v 0.7 1.3 -0.1
v 0.7 1.3 -0.4
v 0.7 1.3 -0.7
v 0.7 1.5 0.7
v 0.7 1.5 0.4
v 0.7 1.5 0.1
v 0.7 1.5 -0.1
v 0.7 1.5 -0.4
v 0.7 1.5 -0.7
v 0.8 1 0.7
v 0.8 1 0.4
v 0.8 1 0.1
v 0.8 1 -0.1
v 0.8 1 -0.4
v 0.8 1 -0.7
v 0.8 1.3 0.7
v 0.8 1.3 0.4
v 0.8 1.3 0.1
v 0.8 1.3 -0.1
v 0.8 1.3 -0.4
v 0.8 1.3 -0.7
v 0.9 0.7 0.7
v 0.9 0.7 0.4
v 0.9 0.7 0.1
v 0.9 0.7 -0.1
v 0.9 0.7 -0.4
v 0.9 0.7 -0.7
v 0.9 1 0.7
v 0.9 1 0.4
v 0.9 1 0.1
v 0.9 1 -0.1
v 0.9 1 -0.4
v 0.9 1 -0.7
v 1 0 0.7
v 1 0 0.4
v 1 0 -0.4
v 1 0 -0.7
v 1 0.3 0.4
v 1 0.3 0.1
v 1 0.3 -0.1
v 1 0.3 -0.4
v 1 0.7 0.7
v 1 0.7 0.4
v 1 0.7 0.1
v 1 0.7 -0.1
v 1 0.7 -0.4
v 1 0.7 -0.7
v -1 0 0.7
v -1 0.7 0.7
v -0.9 0.7 0.7
v -0.9 1 0.7
v -0.8 1 0.7
v -0.8 1.3 0.7
v -0.7 1.3 0.7
v -0.7 1.5 0.7
v -0.6 1.5 0.7
v -0.6 1.6 0.7
v -0.5 1.6 0.7
v -0.5 1.7 0.7
v -0.4 1.7 0.7
v -0.4 1.8 0.7
v 0.4 1.7 0.7
v 0.4 1.8 0.7
v 0.5 1.6 0.7
v 0.5 1.7 0.7
v 0.6 1.5 0.7
v 0.6 1.6 0.7
v 0.7 1.3 0.7
v 0.7 1.5 0.7
v 0.8 1 0.7
v 0.8 1.3 0.7
v 0.9 0.7 0.7
v 0.9 1 0.7
v 1 0 0.7
v 1 0.7 0.7
v -1 0.3 -0.1
v -1 0.7 -0.1
v -0.9 0.3 -0.1
v -0.9 0.7 -0.1
v -0.9 1 -0.1
v -0.8 0.7 -0.1
v -0.8 1 -0.1
v -0.8 1.3 -0.1
v -0.7 1 -0.1
v -0.7 1.3 -0.1
v -0.7 1.5 -0.1
v -0.6 1.3 -0.1
v -0.6 1.5 -0.1
v -0.6 1.6 -0.1
v -0.5 1.5 -0.1
v -0.5 1.6 -0.1
v -0.5 1.7 -0.1
v -0.4 1.6 -0.1
v -0.4 1.7 -0.1
v -0.4 1.8 -0.1
v 0.4 1.6 -0.1
v 0.4 1.7 -0.1
v 0.4 1.8 -0.1
v 0.5 1.5 -0.1
v 0.5 1.6 -0.1
v 0.5 1.7 -0.1
v 0.6 1.3 -0.1
v 0.6 1.5 -0.1
v 0.6 1.6 -0.1
v 0.7 1 -0.1
v 0.7 1.3 -0.1
v 0.7 1.5 -0.1
v 0.8 0.7 -0.1
v 0.8 1 -0.1
v 0.8 1.3 -0.1
v 0.9 0.3 -0.1
v 0.9 0.7 -0.1
v 0.9 1 -0.1
v 1 0.3 -0.1
v 1 0.7 -0.1
v -1 0 -0.4
v -1 0.3 -0.4
v -0.9 0.3 -0.4
v -0.9 0.7 -0.4
v -0.8 0.7 -0.4
v -0.8 1 -0.4
v -0.7 1 -0.4
v -0.7 1.3 -0.4
v -0.6 1.3 -0.4
v -0.6 1.5 -0.4
v -0.5 1.5 -0.4
v -0.5 1.6 -0.4
v -0.4 1.6 -0.4
v -0.4 1.7 -0.4
v 0.4 1.6 -0.4
v 0.4 1.7 -0.4
v 0.5 1.5 -0.4
v 0.5 1.6 -0.4
v 0.6 1.3 -0.4
v 0.6 1.5 -0.4
v 0.7 1 -0.4
v 0.7 1.3 -0.4
v 0.8 0.7 -0.4
v 0.8 1 -0.4
v 0.9 0.3 -0.4
v 0.9 0.7 -0.4
v 1 0 -0.4
v 1 0.3 -0.4
v -1 0 0.4
v -1 0.3 0.4
v -0.9 0.3 0.4
v -0.9 0.7 0.4
v -0.8 0.7 0.4
v -0.8 1 0.4
v -0.7 1 0.4
v -0.7 1.3 0.4
v -0.6 1.3 0.4
v -0.6 1.5 0.4
v -0.5 1.5 0.4
v -0.5 1.6 0.4
v -0.4 1.6 0.4
v -0.4 1.7 0.4
v 0.4 1.6 0.4
v 0.4 1.7 0.4
v 0.5 1.5 0.4
v 0.5 1.6 0.4
v 0.6 1.3 0.4
v 0.6 1.5 0.4
v 0.7 1 0.4
v 0.7 1.3 0.4
v 0.8 0.7 0.4
v 0.8 1 0.4
v 0.9 0.3 0.4
v 0.9 0.7 0.4
v 1 0 0.4
v 1 0.3 0.4
v -1 0.3 0.1
v -1 0.7 0.1
v -0.9 0.3 0.1
v -0.9 0.7 0.1
v -0.9 1 0.1
v -0.8 0.7 0.1
v -0.8 1 0.1
v -0.8 1.3 0.1
v -0.7 1 0.1
v -0.7 1.3 0.1
v -0.7 1.5 0.1
v -0.6 1.3 0.1
v -0.6 1.5 0.1
v -0.6 1.6 0.1
v -0.5 1.5 0.1
v -0.5 1.6 0.1
v -0.5 1.7 0.1
v -0.4 1.6 0.1
v -0.4 1.7 0.1
v -0.4 1.8 0.1
v 0.4 1.6 0.1
v 0.4 1.7 0.1
v 0.4 1.8 0.1
v 0.5 1.5 0.1
v 0.5 1.6 0.1
v 0.5 1.7 0.1
v 0.6 1.3 0.1
v 0.6 1.5 0.1
v 0.6 1.6 0.1
v 0.7 1 0.1
v 0.7 1.3 0.1
v 0.7 1.5 0.1
v 0.8 0.7 0.1
v 0.8 1 0.1
v 0.8 1.3 0.1
v 0.9 0.3 0.1
v 0.9 0.7 0.1
v 0.9 1 0.1
v 1 0.3 0.1
v 1 0.7 0.1
v -1 0 -0.7
v -1 0.7 -0.7
v -0.9 0.7 -0.7
v -0.9 1 -0.7
v -0.8 1 -0.7
v -0.8 1.3 -0.7
v -0.7 1.3 -0.7
v -0.7 1.5 -0.7
v -0.6 1.5 -0.7
v -0.6 1.6 -0.7
v -0.5 1.6 -0.7
v -0.5 1.7 -0.7
v -0.4 1.7 -0.7
v -0.4 1.8 -0.7
v 0.4 1.7 -0.7
v 0.4 1.8 -0.7
v 0.5 1.6 -0.7
v 0.5 1.7 -0.7
v 0.6 1.5 -0.7
v 0.6 1.6 -0.7
v 0.7 1.3 -0.7
v 0.7 1.5 -0.7
v 0.8 1 -0.7
v 0.8 1.3 -0.7
v 0.9 0.7 -0.7
v 0.9 1 -0.7
v 1 0 -0.7
v 1 0.7 -0.7
v -1 0 0.7
v 1 0 0.7
v -1 0 0.4
v 1 0 0.4
v -1 0 -0.4
v 1 0 -0.4
v -1 0 -0.7
v 1 0 -0.7
v -1 0.3 0.4
v -0.9 0.3 0.4
v 0.9 0.3 0.4
v 1 0.3 0.4
v -1 0.3 0.1
v -0.9 0.3 0.1
v 0.9 0.3 0.1
v 1 0.3 0.1
v -1 0.3 -0.1
v -0.9 0.3 -0.1
v 0.9 0.3 -0.1
v 1 0.3 -0.1
v -1 0.3 -0.4
v -0.9 0.3 -0.4
v 0.9 0.3 -0.4
v 1 0.3 -0.4
v -0.9 0.7 0.4
v -0.8 0.7 0.4
v 0.8 0.7 0.4
v 0.9 0.7 0.4
v -0.9 0.7 0.1
v -0.8 0.7 0.1
v 0.8 0.7 0.1
v 0.9 0.7 0.1
v -0.9 0.7 -0.1
v -0.8 0.7 -0.1
v 0.8 0.7 -0.1
v 0.9 0.7 -0.1
v -0.9 0.7 -0.4
v -0.8 0.7 -0.4
v 0.8 0.7 -0.4
v 0.9 0.7 -0.4
v -0.8 1 0.4
v -0.7 1 0.4
v 0.7 1 0.4
v 0.8 1 0.4
v -0.8 1 0.1
v -0.7 1 0.1
v 0.7 1 0.1
v 0.8 1 0.1
v -0.8 1 -0.1
v -0.7 1 -0.1
v 0.7 1 -0.1
v 0.8 1 -0.1
v -0.8 1 -0.4
v -0.7 1 -0.4
v 0.7 1 -0.4
v 0.8 1 -0.4
v -0.7 1.3 0.4
v -0.6 1.3 0.4
v 0.6 1.3 0.4
v 0.7 1.3 0.4
v -0.7 1.3 0.1
v -0.6 1.3 0.1
v 0.6 1.3 0.1
v 0.7 1.3 0.1
v -0.7 1.3 -0.1
v -0.6 1.3 -0.1
v 0.6 1.3 -0.1
v 0.7 1.3 -0.1
v -0.7 1.3 -0.4
v -0.6 1.3 -0.4
v 0.6 1.3 -0.4
v 0.7 1.3 -0.4
v -0.6 1.5 0.4
v -0.5 1.5 0.4
v 0.5 1.5 0.4
v 0.6 1.5 0.4
v -0.6 1.5 0.1
v -0.5 1.5 0.1
v 0.5 1.5 0.1
v 0.6 1.5 0.1
v -0.6 1.5 -0.1
v -0.5 1.5 -0.1
v 0.5 1.5 -0.1
v 0.6 1.5 -0.1
v -0.6 1.5 -0.4
v -0.5 1.5 -0.4
v 0.5 1.5 -0.4
v 0.6 1.5 -0.4
v -0.5 1.6 0.4
v -0.4 1.6 0.4
v 0.4 1.6 0.4
v 0.5 1.6 0.4
v -0.5 1.6 0.1
v -0.4 1.6 0.1
v 0.4 1.6 0.1
v 0.5 1.6 0.1
v -0.5 1.6 -0.1
v -0.4 1.6 -0.1
v 0.4 1.6 -0.1
v 0.5 1.6 -0.1
v -0.5 1.6 -0.4
v -0.4 1.6 -0.4
v 0.4 1.6 -0.4
v 0.5 1.6 -0.4
v -0.4 1.7 0.4
v 0.4 1.7 0.4
v -0.4 1.7 0.1
v 0.4 1.7 0.1
v -0.4 1.7 -0.1
v 0.4 1.7 -0.1
v -0.4 1.7 -0.4
v 0.4 1.7 -0.4
v -1 0.7 0.7
v -0.9 0.7 0.7
v 0.9 0.7 0.7
v 1 0.7 0.7
v -1 0.7 0.4
v -0.9 0.7 0.4
v 0.9 0.7 0.4
v 1 0.7 0.4
v -1 0.7 0.1
v -0.9 0.7 0.1
v 0.9 0.7 0.1
v 1 0.7 0.1
v -1 0.7 -0.1
v -0.9 0.7 -0.1
v 0.9 0.7 -0.1
v 1 0.7 -0.1
v -1 0.7 -0.4
v -0.9 0.7 -0.4
v 0.9 0.7 -0.4
v 1 0.7 -0.4
v -1 0.7 -0.7
v -0.9 0.7 -0.7
v 0.9 0.7 -0.7
v 1 0.7 -0.7
v -0.9 1 0.7
v -0.8 1 0.7
v 0.8 1 0.7
v 0.9 1 0.7
v -0.9 1 0.4
v -0.8 1 0.4
v 0.8 1 0.4
v 0.9 1 0.4
v -0.9 1 0.1
v -0.8 1 0.1
v 0.8 1 0.1
v 0.9 1 0.1
v -0.9 1 -0.1
v -0.8 1 -0.1
v 0.8 1 -0.1
v 0.9 1 -0.1
v -0.9 1 -0.4
v -0.8 1 -0.4
v 0.8 1 -0.4
v 0.9 1 -0.4
v -0.9 1 -0.7
v -0.8 1 -0.7
v 0.8 1 -0.7
v 0.9 1 -0.7
v -0.8 1.3 0.7
v -0.7 1.3 0.7
v 0.7 1.3 0.7
v 0.8 1.3 0.7
v -0.8 1.3 0.4
v -0.7 1.3 0.4
v 0.7 1.3 0.4
v 0.8 1.3 0.4
v -0.8 1.3 0.1
v -0.7 1.3 0.1
v 0.7 1.3 0.1
v 0.8 1.3 0.1
v -0.8 1.3 -0.1
v -0.7 1.3 -0.1
v 0.7 1.3 -0.1
v 0.8 1.3 -0.1
v -0.8 1.3 -0.4
v -0.7 1.3 -0.4
v 0.7 1.3 -0.4
v 0.8 1.3 -0.4
v -0.8 1.3 -0.7
v -0.7 1.3 -0.7
v 0.7 1.3 -0.7
v 0.8 1.3 -0.7
v -0.7 1.5 0.7
v -0.6 1.5 0.7
v 0.6 1.5 0.7
v 0.7 1.5 0.7
v -0.7 1.5 0.4
v -0.6 1.5 0.4
v 0.6 1.5 0.4
v 0.7 1.5 0.4
v -0.7 1.5 0.1
v -0.6 1.5 0.1
v 0.6 1.5 0.1
v 0.7 1.5 0.1
v -0.7 1.5 -0.1
v -0.6 1.5 -0.1
v 0.6 1.5 -0.1
v 0.7 1.5 -0.1
v -0.7 1.5 -0.4
v -0.6 1.5 -0.4
v 0.6 1.5 -0.4
v 0.7 1.5 -0.4
v -0.7 1.5 -0.7
v -0.6 1.5 -0.7
v 0.6 1.5 -0.7
v 0.7 1.5 -0.7
v -0.6 1.6 0.7
v -0.5 1.6 0.7
v 0.5 1.6 0.7
v 0.6 1.6 0.7
v -0.6 1.6 0.4
v -0.5 1.6 0.4
v 0.5 1.6 0.4
v 0.6 1.6 0.4
v -0.6 1.6 0.1
v -0.5 1.6 0.1
v 0.5 1.6 0.1
v 0.6 1.6 0.1
v -0.6 1.6 -0.1
v -0.5 1.6 -0.1
v 0.5 1.6 -0.1
v 0.6 1.6 -0.1
v -0.6 1.6 -0.4
v -0.5 1.6 -0.4
v 0.5 1.6 -0.4
v 0.6 1.6 -0.4
v -0.6 1.6 -0.7
v -0.5 1.6 -0.7
v 0.5 1.6 -0.7
v 0.6 1.6 -0.7
v -0.5 1.7 0.7
v -0.4 1.7 0.7
v 0.4 1.7 0.7
v 0.5 1.7 0.7
v -0.5 1.7 0.4
v -0.4 1.7 0.4
v 0.4 1.7 0.4
v 0.5 1.7 0.4
v -0.5 1.7 0.1
v -0.4 1.7 0.1
v 0.4 1.7 0.1
v 0.5 1.7 0.1
v -0.5 1.7 -0.1
v -0.4 1.7 -0.1
v 0.4 1.7 -0.1
v 0.5 1.7 -0.1
v -0.5 1.7 -0.4
v -0.4 1.7 -0.4
v 0.4 1.7 -0.4
v 0.5 1.7 -0.4
v -0.5 1.7 -0.7
v -0.4 1.7 -0.7
v 0.4 1.7 -0.7
v 0.5 1.7 -0.7
v -0.4 1.8 0.7
v 0.4 1.8 0.7
v -0.4 1.8 0.4
v 0.4 1.8 0.4
v -0.4 1.8 0.1
v 0.4 1.8 0.1
v -0.4 1.8 -0.1
v 0.4 1.8 -0.1
v -0.4 1.8 -0.4
v 0.4 1.8 -0.4
v -0.4 1.8 -0.7
v 0.4 1.8 -0.7

# faces
f 5/1/1 2/1/1 1/1/1
f 8/1/1 4/1/1 3/1/1
f 9/1/1 5/1/1 1/1/1
f 10/2/1 6/2/1 5/2/1
f 10/1/1 5/1/1 9/1/1
f 11/2/1 6/2/1 10/2/1
f 12/2/1 8/2/1 7/2/1
f 13/1/1 4/1/1 8/1/1
f 13/2/1 8/2/1 12/2/1
f 14/1/1 4/1/1 13/1/1
f 21/1/1 16/1/1 15/1/1
f 22/2/1 17/2/1 16/2/1
f 22/1/1 16/1/1 21/1/1
f 23/2/1 17/2/1 22/2/1
f 24/2/1 19/2/1 18/2/1
f 25/1/1 20/1/1 19/1/1
f 25/2/1 19/2/1 24/2/1
f 26/1/1 20/1/1 25/1/1
f 33/1/1 28/1/1 27/1/1
f 34/2/1 29/2/1 28/2/1
f 34/1/1 28/1/1 33/1/1
f 35/2/1 29/2/1 34/2/1
f 36/2/1 31/2/1 30/2/1
f 37/1/1 32/1/1 31/1/1
f 37/2/1 31/2/1 36/2/1
f 38/1/1 32/1/1 37/1/1
f 45/1/1 40/1/1 39/1/1
f 46/2/1 41/2/1 40/2/1
f 46/1/1 40/1/1 45/1/1
f 47/2/1 41/2/1 46/2/1
f 48/2/1 43/2/1 42/2/1
f 49/1/1 44/1/1 43/1/1
f 49/2/1 43/2/1 48/2/1
f 50/1/1 44/1/1 49/1/1
f 57/1/1 52/1/1 51/1/1
f 58/2/1 53/2/1 52/2/1
f 58/1/1 52/1/1 57/1/1
f 59/2/1 53/2/1 58/2/1
f 60/2/1 55/2/1 54/2/1
f 61/1/1 56/1/1 55/1/1
f 61/2/1 55/2/1 60/2/1
f 62/1/1 56/1/1 61/1/1
f 69/1/1 64/1/1 63/1/1
f 70/2/1 65/2/1 64/2/1
f 70/1/1 64/1/1 69/1/1
f 71/2/1 65/2/1 70/2/1
f 72/2/1 67/2/1 66/2/1
f 73/1/1 68/1/1 67/1/1
f 73/2/1 67/2/1 72/2/1
f 74/1/1 68/1/1 73/1/1
f 81/1/1 76/1/1 75/1/1
f 82/2/1 77/2/1 76/2/1
f 82/1/1 76/1/1 81/1/1
f 83/2/1 77/2/1 82/2/1
f 84/2/1 79/2/1 78/2/1
f 85/1/1 80/1/1 79/1/1
f 85/2/1 79/2/1 84/2/1
f 86/1/1 80/1/1 85/1/1
f 91/2/1 88/2/1 87/2/1
f 92/2/1 88/2/1 91/2/1
f 93/2/1 90/2/1 89/2/1
f 94/2/1 90/2/1 93/2/1
f 99/2/1 96/2/1 95/2/1
f 100/2/1 96/2/1 99/2/1
f 101/2/1 98/2/1 97/2/1
f 102/2/1 98/2/1 101/2/1
f 107/2/1 104/2/1 103/2/1
f 108/2/1 104/2/1 107/2/1
f 109/2/1 106/2/1 105/2/1
f 110/2/1 106/2/1 109/2/1
f 115/2/1 112/2/1 111/2/1
f 116/2/1 112/2/1 115/2/1
f 117/2/1 114/2/1 113/2/1
f 118/2/1 114/2/1 117/2/1
f 123/2/1 120/2/1 119/2/1
f 124/2/1 120/2/1 123/2/1
f 125/2/1 122/2/1 121/2/1
f 126/2/1 122/2/1 125/2/1
f 131/2/1 128/2/1 127/2/1
f 132/2/1 128/2/1 131/2/1
f 133/2/1 130/2/1 129/2/1
f 134/2/1 130/2/1 133/2/1
f 135/2/2 136/2/2 139/2/2
f 139/2/2 136/2/2 140/2/2
f 137/2/2 138/2/2 141/2/2
f 141/2/2 138/2/2 142/2/2
f 143/2/2 144/2/2 147/2/2
f 147/2/2 144/2/2 148/2/2
f 145/2/2 146/2/2 149/2/2
f 149/2/2 146/2/2 150/2/2
f 151/2/2 152/2/2 155/2/2
f 155/2/2 152/2/2 156/2/2
f 153/2/2 154/2/2 157/2/2
f 157/2/2 154/2/2 158/2/2
f 159/2/2 160/2/2 163/2/2
f 163/2/2 160/2/2 164/2/2
f 161/2/2 162/2/2 165/2/2
f 165/2/2 162/2/2 166/2/2
f 167/2/2 168/2/2 171/2/2
f 171/2/2 168/2/2 172/2/2
f 169/2/2 170/2/2 173/2/2
f 173/2/2 170/2/2 174/2/2
f 175/2/2 176/2/2 179/2/2
f 179/2/2 176/2/2 180/2/2
f 177/2/2 178/2/2 181/2/2
f 181/2/2 178/2/2 182/2/2
f 183/1/2 184/1/2 189/1/2
f 184/2/2 185/2/2 190/2/2
f 189/1/2 184/1/2 190/1/2
f 190/2/2 185/2/2 191/2/2
f 186/2/2 187/2/2 192/2/2
f 187/1/2 188/1/2 193/1/2
f 192/2/2 187/2/2 193/2/2
f 193/1/2 188/1/2 194/1/2
f 195/1/2 196/1/2 201/1/2
f 196/2/2 197/2/2 202/2/2
f 201/1/2 196/1/2 202/1/2
f 202/2/2 197/2/2 203/2/2
f 198/2/2 199/2/2 204/2/2
f 199/1/2 200/1/2 205/1/2
f 204/2/2 199/2/2 205/2/2
f 205/1/2 200/1/2 206/1/2
f 207/1/2 208/1/2 213/1/2
f 208/2/2 209/2/2 214/2/2
f 213/1/2 208/1/2 214/1/2
f 214/2/2 209/2/2 215/2/2
f 210/2/2 211/2/2 216/2/2
f 211/1/2 212/1/2 217/1/2
f 216/2/2 211/2/2 217/2/2
f 217/1/2 212/1/2 218/1/2
f 219/1/2 220/1/2 225/1/2
f 220/2/2 221/2/2 226/2/2
f 225/1/2 220/1/2 226/1/2
f 226/2/2 221/2/2 227/2/2
f 222/2/2 223/2/2 228/2/2
f 223/1/2 224/1/2 229/1/2
f 228/2/2 223/2/2 229/2/2
f 229/1/2 224/1/2 230/1/2
f 231/1/2 232/1/2 237/1/2
f 232/2/2 233/2/2 238/2/2
f 237/1/2 232/1/2 238/1/2
f 238/2/2 233/2/2 239/2/2
f 234/2/2 235/2/2 240/2/2
f 235/1/2 236/1/2 241/1/2
f 240/2/2 235/2/2 241/2/2
f 241/1/2 236/1/2 242/1/2
f 243/1/2 244/1/2 249/1/2
f 244/2/2 245/2/2 250/2/2
f 249/1/2 244/1/2 250/1/2
f 250/2/2 245/2/2 251/2/2
f 246/2/2 247/2/2 252/2/2
f 247/1/2 248/1/2 253/1/2
f 252/2/2 247/2/2 253/2/2
f 253/1/2 248/1/2 254/1/2
f 255/1/2 256/1/2 259/1/2
f 257/1/2 258/1/2 262/1/2
f 255/1/2 259/1/2 263/1/2
f 259/2/2 260/2/2 264/2/2
f 263/1/2 259/1/2 264/1/2
f 264/2/2 260/2/2 265/2/2
f 261/2/2 262/2/2 266/2/2
f 262/1/2 258/1/2 267/1/2
f 266/2/2 262/2/2 267/2/2
f 267/1/2 258/1/2 268/1/2
f 271/1/3 270/1/3 269/1/3
f 273/1/3 272/1/3 271/1/3
f 275/1/3 274/1/3 273/1/3
f 277/1/3 276/1/3 275/1/3
f 279/1/3 278/1/3 277/1/3
f 281/1/3 280/1/3 279/1/3
f 283/1/3 281/1/3 279/1/3
f 283/1/3 282/1/3 281/1/3
f 284/1/3 282/1/3 283/1/3
f 285/1/3 279/1/3 277/1/3
f 285/1/3 283/1/3 279/1/3
f 286/1/3 283/1/3 285/1/3
f 287/1/3 277/1/3 275/1/3
f 287/1/3 285/1/3 277/1/3
f 288/1/3 285/1/3 287/1/3
f 289/1/3 275/1/3 273/1/3
f 289/1/3 287/1/3 275/1/3
f 290/1/3 287/1/3 289/1/3
f 291/1/3 273/1/3 271/1/3
f 291/1/3 289/1/3 273/1/3
f 292/1/3 289/1/3 291/1/3
f 293/1/3 271/1/3 269/1/3
f 293/1/3 291/1/3 271/1/3
f 294/1/3 291/1/3 293/1/3
f 295/1/3 293/1/3 269/1/3
f 296/1/3 293/1/3 295/1/3
f 299/2/3 298/2/3 297/2/3
f 300/2/3 298/2/3 299/2/3
f 302/2/3 301/2/3 300/2/3
f 303/2/3 301/2/3 302/2/3
f 305/2/3 304/2/3 303/2/3
f 306/2/3 304/2/3 305/2/3
f 308/2/3 307/2/3 306/2/3
f 309/2/3 307/2/3 308/2/3
f 311/2/3 310/2/3 309/2/3
f 312/2/3 310/2/3 311/2/3
f 314/2/3 313/2/3 312/2/3
f 315/2/3 313/2/3 314/2/3
f 318/2/3 316/2/3 315/2/3
f 319/2/3 316/2/3 318/2/3
f 321/2/3 318/2/3 317/2/3
f 322/2/3 318/2/3 321/2/3
f 324/2/3 321/2/3 320/2/3
f 325/2/3 321/2/3 324/2/3
f 327/2/3 324/2/3 323/2/3
f 328/2/3 324/2/3 327/2/3
f 330/2/3 327/2/3 326/2/3
f 331/2/3 327/2/3 330/2/3
f 333/2/3 330/2/3 329/2/3
f 334/2/3 330/2/3 333/2/3
f 335/2/3 333/2/3 332/2/3
f 336/2/3 333/2/3 335/2/3
f 339/1/3 338/1/3 337/1/3
f 341/1/3 340/1/3 339/1/3
f 343/1/3 342/1/3 341/1/3
f 345/1/3 344/1/3 343/1/3
f 347/1/3 346/1/3 345/1/3
f 349/1/3 348/1/3 347/1/3
f 351/1/3 349/1/3 347/1/3
f 351/1/3 350/1/3 349/1/3
f 352/1/3 350/1/3 351/1/3
f 353/1/3 347/1/3 345/1/3
f 353/1/3 351/1/3 347/1/3
f 354/1/3 351/1/3 353/1/3
f 355/1/3 345/1/3 343/1/3
f 355/1/3 353/1/3 345/1/3
f 356/1/3 353/1/3 355/1/3
f 357/1/3 343/1/3 341/1/3
f 357/1/3 355/1/3 343/1/3
f 358/1/3 355/1/3 357/1/3
f 359/1/3 341/1/3 339/1/3
f 359/1/3 357/1/3 341/1/3
f 360/1/3 357/1/3 359/1/3
f 361/1/3 339/1/3 337/1/3
f 361/1/3 359/1/3 339/1/3
f 362/1/3 359/1/3 361/1/3
f 363/1/3 361/1/3 337/1/3
f 364/1/3 361/1/3 363/1/3
f 365/1/4 366/1/4 367/1/4
f 367/1/4 368/1/4 369/1/4
f 369/1/4 370/1/4 371/1/4
f 371/1/4 372/1/4 373/1/4
f 373/1/4 374/1/4 375/1/4
f 375/1/4 376/1/4 377/1/4
f 375/1/4 377/1/4 379/1/4
f 377/1/4 378/1/4 379/1/4
f 379/1/4 378/1/4 380/1/4
f 373/1/4 375/1/4 381/1/4
f 375/1/4 379/1/4 381/1/4
f 381/1/4 379/1/4 382/1/4
f 371/1/4 373/1/4 383/1/4
f 373/1/4 381/1/4 383/1/4
f 383/1/4 381/1/4 384/1/4
f 369/1/4 371/1/4 385/1/4
f 371/1/4 383/1/4 385/1/4
f 385/1/4 383/1/4 386/1/4
f 367/1/4 369/1/4 387/1/4
f 369/1/4 385/1/4 387/1/4
f 387/1/4 385/1/4 388/1/4
f 365/1/4 367/1/4 389/1/4
f 367/1/4 387/1/4 389/1/4
f 389/1/4 387/1/4 390/1/4
f 365/1/4 389/1/4 391/1/4
f 391/1/4 389/1/4 392/1/4
f 393/2/4 394/2/4 395/2/4
f 395/2/4 394/2/4 396/2/4
f 396/2/4 397/2/4 398/2/4
f 398/2/4 397/2/4 399/2/4
f 399/2/4 400/2/4 401/2/4
f 401/2/4 400/2/4 402/2/4
f 402/2/4 403/2/4 404/2/4
f 404/2/4 403/2/4 405/2/4
f 405/2/4 406/2/4 407/2/4
f 407/2/4 406/2/4 408/2/4
f 408/2/4 409/2/4 410/2/4
f 410/2/4 409/2/4 411/2/4
f 411/2/4 412/2/4 414/2/4
f 414/2/4 412/2/4 415/2/4
f 413/2/4 414/2/4 417/2/4
f 417/2/4 414/2/4 418/2/4
f 416/2/4 417/2/4 420/2/4
f 420/2/4 417/2/4 421/2/4
f 419/2/4 420/2/4 423/2/4
f 423/2/4 420/2/4 424/2/4
f 422/2/4 423/2/4 426/2/4
f 426/2/4 423/2/4 427/2/4
f 425/2/4 426/2/4 429/2/4
f 429/2/4 426/2/4 430/2/4
f 428/2/4 429/2/4 431/2/4
f 431/2/4 429/2/4 432/2/4
f 433/1/4 434/1/4 435/1/4
f 435/1/4 436/1/4 437/1/4
f 437/1/4 438/1/4 439/1/4
f 439/1/4 440/1/4 441/1/4
f 441/1/4 442/1/4 443/1/4
f 443/1/4 444/1/4 445/1/4
f 443/1/4 445/1/4 447/1/4
f 445/1/4 446/1/4 447/1/4
f 447/1/4 446/1/4 448/1/4
f 441/1/4 443/1/4 449/1/4
f 443/1/4 447/1/4 449/1/4
f 449/1/4 447/1/4 450/1/4
f 439/1/4 441/1/4 451/1/4
f 441/1/4 449/1/4 451/1/4
f 451/1/4 449/1/4 452/1/4
f 437/1/4 439/1/4 453/1/4
f 439/1/4 451/1/4 453/1/4
f 453/1/4 451/1/4 454/1/4
f 435/1/4 437/1/4 455/1/4
f 437/1/4 453/1/4 455/1/4
f 455/1/4 453/1/4 456/1/4
f 433/1/4 435/1/4 457/1/4
f 435/1/4 455/1/4 457/1/4
f 457/1/4 455/1/4 458/1/4
f 433/1/4 457/1/4 459/1/4
f 459/1/4 457/1/4 460/1/4
f 463/1/5 462/1/5 461/1/5
f 464/1/5 462/1/5 463/1/5
f 467/1/5 466/1/5 465/1/5
f 468/1/5 466/1/5 467/1/5
f 473/2/5 470/2/5 469/2/5
f 474/2/5 470/2/5 473/2/5
f 475/2/5 472/2/5 471/2/5
f 476/2/5 472/2/5 475/2/5
f 481/2/5 478/2/5 477/2/5
f 482/2/5 478/2/5 481/2/5
f 483/2/5 480/2/5 479/2/5
f 484/2/5 480/2/5 483/2/5
f 489/2/5 486/2/5 485/2/5
f 490/2/5 486/2/5 489/2/5
f 491/2/5 488/2/5 487/2/5
f 492/2/5 488/2/5 491/2/5
f 497/2/5 494/2/5 493/2/5
f 498/2/5 494/2/5 497/2/5
f 499/2/5 496/2/5 495/2/5
f 500/2/5 496/2/5 499/2/5
f 505/2/5 502/2/5 501/2/5
f 506/2/5 502/2/5 505/2/5
f 507/2/5 504/2/5 503/2/5
f 508/2/5 504/2/5 507/2/5
f 513/2/5 510/2/5 509/2/5
f 514/2/5 510/2/5 513/2/5
f 515/2/5 512/2/5 511/2/5
f 516/2/5 512/2/5 515/2/5
f 521/2/5 518/2/5 517/2/5
f 522/2/5 518/2/5 521/2/5
f 523/2/5 520/2/5 519/2/5
f 524/2/5 520/2/5 523/2/5
f 529/2/5 526/2/5 525/2/5
f 530/2/5 526/2/5 529/2/5
f 531/2/5 528/2/5 527/2/5
f 532/2/5 528/2/5 531/2/5
f 537/2/5 534/2/5 533/2/5
f 538/2/5 534/2/5 537/2/5
f 539/2/5 536/2/5 535/2/5
f 540/2/5 536/2/5 539/2/5
f 545/2/5 542/2/5 541/2/5
f 546/2/5 542/2/5 545/2/5
f 547/2/5 544/2/5 543/2/5
f 548/2/5 544/2/5 547/2/5
f 553/2/5 550/2/5 549/2/5
f 554/2/5 550/2/5 553/2/5
f 555/2/5 552/2/5 551/2/5
f 556/2/5 552/2/5 555/2/5
f 561/2/5 558/2/5 557/2/5
f 562/2/5 558/2/5 561/2/5
f 563/2/5 560/2/5 559/2/5
f 564/2/5 560/2/5 563/2/5
f 567/2/5 566/2/5 565/2/5
f 568/2/5 566/2/5 567/2/5
f 571/2/5 570/2/5 569/2/5
f 572/2/5 570/2/5 571/2/5
f 573/1/6 574/1/6 577/1/6
f 577/1/6 574/1/6 578/1/6
f 575/1/6 576/1/6 579/1/6
f 579/1/6 576/1/6 580/1/6
f 577/2/6 578/2/6 581/2/6
f 581/2/6 578/2/6 582/2/6
f 579/2/6 580/2/6 583/2/6
f 583/2/6 580/2/6 584/2/6
f 585/2/6 586/2/6 589/2/6
f 589/2/6 586/2/6 590/2/6
f 587/2/6 588/2/6 591/2/6
f 591/2/6 588/2/6 592/2/6
f 589/1/6 590/1/6 593/1/6
f 593/1/6 590/1/6 594/1/6
f 591/1/6 592/1/6 595/1/6
f 595/1/6 592/1/6 596/1/6
f 597/1/6 598/1/6 601/1/6
f 601/1/6 598/1/6 602/1/6
f 599/1/6 600/1/6 603/1/6
f 603/1/6 600/1/6 604/1/6
f 601/2/6 602/2/6 605/2/6
f 605/2/6 602/2/6 606/2/6
f 603/2/6 604/2/6 607/2/6
f 607/2/6 604/2/6 608/2/6
f 609/2/6 610/2/6 613/2/6
f 613/2/6 610/2/6 614/2/6
f 611/2/6 612/2/6 615/2/6
f 615/2/6 612/2/6 616/2/6
f 613/1/6 614/1/6 617/1/6
f 617/1/6 614/1/6 618/1/6
f 615/1/6 616/1/6 619/1/6
f 619/1/6 616/1/6 620/1/6
f 621/1/6 622/1/6 625/1/6
f 625/1/6 622/1/6 626/1/6
f 623/1/6 624/1/6 627/1/6
f 627/1/6 624/1/6 628/1/6
f 625/2/6 626/2/6 629/2/6
f 629/2/6 626/2/6 630/2/6
f 627/2/6 628/2/6 631/2/6
f 631/2/6 628/2/6 632/2/6
f 633/2/6 634/2/6 637/2/6
f 637/2/6 634/2/6 638/2/6
f 635/2/6 636/2/6 639/2/6
f 639/2/6 636/2/6 640/2/6
f 637/1/6 638/1/6 641/1/6
f 641/1/6 638/1/6 642/1/6
f 639/1/6 640/1/6 643/1/6
f 643/1/6 640/1/6 644/1/6
f 645/1/6 646/1/6 649/1/6
f 649/1/6 646/1/6 650/1/6
f 647/1/6 648/1/6 651/1/6
f 651/1/6 648/1/6 652/1/6
f 649/2/6 650/2/6 653/2/6
f 653/2/6 650/2/6 654/2/6
f 651/2/6 652/2/6 655/2/6
f 655/2/6 652/2/6 656/2/6
f 657/2/6 658/2/6 661/2/6
f 661/2/6 658/2/6 662/2/6
f 659/2/6 660/2/6 663/2/6
f 663/2/6 660/2/6 664/2/6
f 661/1/6 662/1/6 665/1/6
f 665/1/6 662/1/6 666/1/6
f 663/1/6 664/1/6 667/1/6
f 667/1/6 664/1/6 668/1/6
f 669/1/6 670/1/6 673/1/6
f 673/1/6 670/1/6 674/1/6
f 671/1/6 672/1/6 675/1/6
f 675/1/6 672/1/6 676/1/6
f 673/2/6 674/2/6 677/2/6
f 677/2/6 674/2/6 678/2/6
f 675/2/6 676/2/6 679/2/6
f 679/2/6 676/2/6 680/2/6
f 681/2/6 682/2/6 685/2/6
f 685/2/6 682/2/6 686/2/6
f 683/2/6 684/2/6 687/2/6
f 687/2/6 684/2/6 688/2/6
f 685/1/6 686/1/6 689/1/6
f 689/1/6 686/1/6 690/1/6
f 687/1/6 688/1/6 691/1/6
f 691/1/6 688/1/6 692/1/6
f 693/1/6 694/1/6 697/1/6
f 697/1/6 694/1/6 698/1/6
f 695/1/6 696/1/6 699/1/6
f 699/1/6 696/1/6 700/1/6
f 697/2/6 698/2/6 701/2/6
f 701/2/6 698/2/6 702/2/6
f 699/2/6 700/2/6 703/2/6
f 703/2/6 700/2/6 704/2/6
f 705/2/6 706/2/6 709/2/6
f 709/2/6 706/2/6 710/2/6
f 707/2/6 708/2/6 711/2/6
f 711/2/6 708/2/6 712/2/6
f 709/1/6 710/1/6 713/1/6
f 713/1/6 710/1/6 714/1/6
f 711/1/6 712/1/6 715/1/6
f 715/1/6 712/1/6 716/1/6
f 717/1/6 718/1/6 719/1/6
f 719/1/6 718/1/6 720/1/6
f 719/2/6 720/2/6 721/2/6
f 721/2/6 720/2/6 722/2/6
f 723/2/6 724/2/6 725/2/6
f 725/2/6 724/2/6 726/2/6
f 725/1/6 726/1/6 727/1/6
f 727/1/6 726/1/6 728/1/6
