# MagicaVoxel @ Ephtracy

# group
o 

# material
mtllib Higado.mtl
usemtl palette

# normals
vn -1 0 0
vn 1 0 0
vn 0 0 1
vn 0 0 -1
vn 0 -1 0
vn 0 1 0

# texcoords
vt 0.181641 0.5
vt 0.560547 0.5
vt 0.919922 0.5
vt 0.962891 0.5

# verts
v -1 0 0.6
v -1 0 0.1
v -1 0.3 0.6
v -1 0.3 0.1
v -0.9 0 0.8
v -0.9 0 0.6
v -0.9 0 0.1
v -0.9 0 -0.3
v -0.9 0.3 0.8
v -0.9 0.3 0.6
v -0.9 0.3 0.1
v -0.9 0.3 -0.3
v -0.8 0 1
v -0.8 0 0.8
v -0.8 0 -0.3
v -0.8 0 -0.5
v -0.8 0.3 1
v -0.8 0.3 0.8
v -0.8 0.3 -0.3
v -0.8 0.3 -0.5
v -0.7 0 -0.5
v -0.7 0 -0.6
v -0.7 0.3 -0.5
v -0.7 0.3 -0.6
v -0.6 0 -0.6
v -0.6 0 -0.7
v -0.6 0.3 -0.6
v -0.6 0.3 -0.7
v 0.3 0 0.6
v 0.3 0 0.4
v 0.3 0 -0.6
v 0.3 0 -0.7
v 0.3 0.2 0.4
v 0.3 0.2 -0.6
v 0.3 0.3 0.6
v 0.3 0.3 0.4
v 0.3 0.3 -0.6
v 0.3 0.3 -0.7
v 0.4 0 0.8
v 0.4 0 0.6
v 0.4 0.3 0.8
v 0.4 0.3 0.6
v 0.7 0 0.4
v 0.7 0 0.3
v 0.7 0.3 0.4
v 0.7 0.3 0.3
v -0.4 0 1
v -0.4 0 0.9
v -0.4 0.3 1
v -0.4 0.3 0.9
v -0.3 0 0.9
v -0.3 0 0.8
v -0.3 0.3 0.9
v -0.3 0.3 0.8
v -0.2 0 0.8
v -0.2 0 0.7
v -0.2 0.3 0.8
v -0.2 0.3 0.7
v -0.1 0 0.7
v -0.1 0 0.6
v -0.1 0.3 0.7
v -0.1 0.3 0.6
v 0 0 0.6
v 0 0 0.5
v 0 0.3 0.6
v 0 0.3 0.5
v 0.2 0 0.5
v 0.2 0 0.4
v 0.2 0 -0.6
v 0.2 0 -0.7
v 0.2 0.2 0.4
v 0.2 0.2 -0.6
v 0.2 0.3 0.5
v 0.2 0.3 0.4
v 0.2 0.3 -0.6
v 0.2 0.3 -0.7
v 0.4 0 0.6
v 0.4 0 0.4
v 0.4 0 0.3
v 0.4 0 -0.6
v 0.4 0 -0.7
v 0.4 0.3 0.6
v 0.4 0.3 0.4
v 0.4 0.3 0.3
v 0.4 0.3 -0.6
v 0.4 0.3 -0.7
v 0.5 0 0.8
v 0.5 0 0.6
v 0.5 0.3 0.8
v 0.5 0.3 0.6
v 0.6 0 -0.5
v 0.6 0 -0.6
v 0.6 0.3 -0.5
v 0.6 0.3 -0.6
v 1 0 0.4
v 1 0 0.3
v 1 0 -0.4
v 1 0 -0.5
v 1 0.3 0.4
v 1 0.3 0.3
v 1 0.3 -0.4
v 1 0.3 -0.5
v 1.1 0 0.3
v 1.1 0 0.2
v 1.1 0.3 0.3
v 1.1 0.3 0.2
v 1.2 0 0.2
v 1.2 0 0.1
v 1.2 0 -0.3
v 1.2 0 -0.4
v 1.2 0.3 0.2
v 1.2 0.3 0.1
v 1.2 0.3 -0.3
v 1.2 0.3 -0.4
v 1.3 0 0.1
v 1.3 0 -0.1
v 1.3 0.3 0.1
v 1.3 0.3 -0.1
v 1.4 0 -0.1
v 1.4 0 -0.3
v 1.4 0.3 -0.1
v 1.4 0.3 -0.3
v -0.8 0 1
v -0.8 0.3 1
v -0.4 0 1
v -0.4 0.3 1
v -0.4 0 0.9
v -0.4 0.3 0.9
v -0.3 0 0.9
v -0.3 0.3 0.9
v -0.9 0 0.8
v -0.9 0.3 0.8
v -0.8 0 0.8
v -0.8 0.3 0.8
v -0.3 0 0.8
v -0.3 0.3 0.8
v -0.2 0 0.8
v -0.2 0.3 0.8
v 0.4 0 0.8
v 0.4 0.3 0.8
v 0.5 0 0.8
v 0.5 0.3 0.8
v -0.2 0 0.7
v -0.2 0.3 0.7
v -0.1 0 0.7
v -0.1 0.3 0.7
v -1 0 0.6
v -1 0.3 0.6
v -0.9 0 0.6
v -0.9 0.3 0.6
v -0.1 0 0.6
v -0.1 0.3 0.6
v 0 0 0.6
v 0 0.3 0.6
v 0.3 0 0.6
v 0.3 0.3 0.6
v 0.4 0 0.6
v 0.4 0.3 0.6
v 0 0 0.5
v 0 0.3 0.5
v 0.1 0 0.5
v 0.1 0.3 0.5
v 0.2 0 0.5
v 0.2 0.3 0.5
v 0.2 0 0.4
v 0.2 0.2 0.4
v 0.2 0.3 0.4
v 0.3 0 0.4
v 0.3 0.2 0.4
v 0.3 0.3 0.4
v 0.7 0 0.4
v 0.7 0.3 0.4
v 1 0 0.4
v 1 0.3 0.4
v 0.4 0 0.3
v 0.4 0.3 0.3
v 0.7 0 0.3
v 0.7 0.3 0.3
v 1 0 0.3
v 1 0.3 0.3
v 1.1 0 0.3
v 1.1 0.3 0.3
v 1.1 0 0.2
v 1.1 0.3 0.2
v 1.2 0 0.2
v 1.2 0.3 0.2
v 1.2 0 0.1
v 1.2 0.3 0.1
v 1.3 0 0.1
v 1.3 0.3 0.1
v 1.3 0 -0.1
v 1.3 0.3 -0.1
v 1.4 0 -0.1
v 1.4 0.3 -0.1
v 0.4 0 0.6
v 0.4 0.3 0.6
v 0.5 0 0.6
v 0.5 0.3 0.6
v -1 0 0.1
v -1 0.3 0.1
v -0.9 0 0.1
v -0.9 0.3 0.1
v -0.9 0 -0.3
v -0.9 0.3 -0.3
v -0.8 0 -0.3
v -0.8 0.3 -0.3
v 1.2 0 -0.3
v 1.2 0.3 -0.3
v 1.4 0 -0.3
v 1.4 0.3 -0.3
v 1 0 -0.4
v 1 0.3 -0.4
v 1.2 0 -0.4
v 1.2 0.3 -0.4
v -0.8 0 -0.5
v -0.8 0.3 -0.5
v -0.7 0 -0.5
v -0.7 0.3 -0.5
v 0.6 0 -0.5
v 0.6 0.3 -0.5
v 1 0 -0.5
v 1 0.3 -0.5
v -0.7 0 -0.6
v -0.7 0.3 -0.6
v -0.6 0 -0.6
v -0.6 0.3 -0.6
v 0.2 0 -0.6
v 0.2 0.2 -0.6
v 0.2 0.3 -0.6
v 0.3 0 -0.6
v 0.3 0.2 -0.6
v 0.3 0.3 -0.6
v 0.4 0 -0.6
v 0.4 0.3 -0.6
v 0.6 0 -0.6
v 0.6 0.3 -0.6
v -0.6 0 -0.7
v -0.6 0.3 -0.7
v 0.1 0 -0.7
v 0.1 0.3 -0.7
v 0.2 0 -0.7
v 0.2 0.3 -0.7
v 0.3 0 -0.7
v 0.3 0.3 -0.7
v 0.4 0 -0.7
v 0.4 0.3 -0.7
v -0.8 0 1
v -0.4 0 1
v -0.4 0 0.9
v -0.3 0 0.9
v -0.9 0 0.8
v -0.8 0 0.8
v -0.3 0 0.8
v -0.2 0 0.8
v 0.4 0 0.8
v 0.5 0 0.8
v -0.2 0 0.7
v -0.1 0 0.7
v -1 0 0.6
v -0.9 0 0.6
v -0.1 0 0.6
v 0 0 0.6
v 0.3 0 0.6
v 0.4 0 0.6
v 0.5 0 0.6
v 0 0 0.5
v 0.1 0 0.5
v 0.2 0 0.5
v 0.1 0 0.4
v 0.2 0 0.4
v 0.3 0 0.4
v 0.4 0 0.4
v 0.7 0 0.4
v 1 0 0.4
v 0.4 0 0.3
v 0.7 0 0.3
v 1 0 0.3
v 1.1 0 0.3
v 1.1 0 0.2
v 1.2 0 0.2
v -1 0 0.1
v -0.9 0 0.1
v 1.2 0 0.1
v 1.3 0 0.1
v 1.3 0 -0.1
v 1.4 0 -0.1
v -0.9 0 -0.3
v -0.8 0 -0.3
v 1.2 0 -0.3
v 1.4 0 -0.3
v 1 0 -0.4
v 1.2 0 -0.4
v -0.8 0 -0.5
v -0.7 0 -0.5
v 0.6 0 -0.5
v 1 0 -0.5
v -0.7 0 -0.6
v -0.6 0 -0.6
v 0.1 0 -0.6
v 0.2 0 -0.6
v 0.3 0 -0.6
v 0.4 0 -0.6
v 0.6 0 -0.6
v -0.6 0 -0.7
v 0.1 0 -0.7
v 0.2 0 -0.7
v 0.3 0 -0.7
v 0.4 0 -0.7
v -0.8 0.3 1
v -0.4 0.3 1
v -0.4 0.3 0.9
v -0.3 0.3 0.9
v -0.9 0.3 0.8
v -0.8 0.3 0.8
v -0.3 0.3 0.8
v -0.2 0.3 0.8
v 0.4 0.3 0.8
v 0.5 0.3 0.8
v -0.2 0.3 0.7
v -0.1 0.3 0.7
v -1 0.3 0.6
v -0.9 0.3 0.6
v -0.1 0.3 0.6
v 0 0.3 0.6
v 0.3 0.3 0.6
v 0.4 0.3 0.6
v 0.5 0.3 0.6
v 0 0.3 0.5
v 0.1 0.3 0.5
v 0.2 0.3 0.5
v 0.2 0.3 0.4
v 0.3 0.3 0.4
v 0.4 0.3 0.4
v 0.7 0.3 0.4
v 1 0.3 0.4
v 0.4 0.3 0.3
v 0.7 0.3 0.3
v 1 0.3 0.3
v 1.1 0.3 0.3
v 0 0.3 0.2
v 0.1 0.3 0.2
v 0.2 0.3 0.2
v 0.3 0.3 0.2
v 1.1 0.3 0.2
v 1.2 0.3 0.2
v -1 0.3 0.1
v -0.9 0.3 0.1
v 1.2 0.3 0.1
v 1.3 0.3 0.1
v 0 0.3 0
v 0.1 0.3 0
v 0.2 0.3 0
v 0.3 0.3 0
v 1.3 0.3 -0.1
v 1.4 0.3 -0.1
v 0.1 0.3 -0.2
v 0.2 0.3 -0.2
v 0.3 0.3 -0.2
v 0.4 0.3 -0.2
v -0.9 0.3 -0.3
v -0.8 0.3 -0.3
v 1.2 0.3 -0.3
v 1.4 0.3 -0.3
v 0.1 0.3 -0.4
v 0.2 0.3 -0.4
v 0.3 0.3 -0.4
v 0.4 0.3 -0.4
v 1 0.3 -0.4
v 1.2 0.3 -0.4
v -0.8 0.3 -0.5
v -0.7 0.3 -0.5
v 0.6 0.3 -0.5
v 1 0.3 -0.5
v -0.7 0.3 -0.6
v -0.6 0.3 -0.6
v 0.2 0.3 -0.6
v 0.3 0.3 -0.6
v 0.4 0.3 -0.6
v 0.6 0.3 -0.6
v -0.6 0.3 -0.7
v 0.1 0.3 -0.7
v 0.2 0.3 -0.7
v 0.3 0.3 -0.7
v 0.4 0.3 -0.7

# faces
f 3/2/1 2/2/1 1/2/1
f 4/2/1 2/2/1 3/2/1
f 9/2/1 6/2/1 5/2/1
f 10/2/1 6/2/1 9/2/1
f 11/2/1 8/2/1 7/2/1
f 12/2/1 8/2/1 11/2/1
f 17/2/1 14/2/1 13/2/1
f 18/2/1 14/2/1 17/2/1
f 19/2/1 16/2/1 15/2/1
f 20/2/1 16/2/1 19/2/1
f 23/2/1 22/2/1 21/2/1
f 24/2/1 22/2/1 23/2/1
f 27/2/1 26/2/1 25/2/1
f 28/2/1 26/2/1 27/2/1
f 33/3/1 30/3/1 29/3/1
f 34/3/1 32/3/1 31/3/1
f 35/3/1 33/3/1 29/3/1
f 36/3/1 33/3/1 35/3/1
f 37/3/1 32/3/1 34/3/1
f 38/3/1 32/3/1 37/3/1
f 41/3/1 40/3/1 39/3/1
f 42/3/1 40/3/1 41/3/1
f 45/2/1 44/2/1 43/2/1
f 46/2/1 44/2/1 45/2/1
f 47/2/2 48/2/2 49/2/2
f 49/2/2 48/2/2 50/2/2
f 51/2/2 52/2/2 53/2/2
f 53/2/2 52/2/2 54/2/2
f 55/2/2 56/2/2 57/2/2
f 57/2/2 56/2/2 58/2/2
f 59/2/2 60/2/2 61/2/2
f 61/2/2 60/2/2 62/2/2
f 63/2/2 64/2/2 65/2/2
f 65/2/2 64/2/2 66/2/2
f 67/4/2 68/4/2 71/4/2
f 69/4/2 70/4/2 72/4/2
f 67/4/2 71/4/2 73/4/2
f 73/4/2 71/4/2 74/4/2
f 72/4/2 70/4/2 75/4/2
f 75/4/2 70/4/2 76/4/2
f 77/3/2 78/3/2 82/3/2
f 78/2/2 79/2/2 83/2/2
f 82/3/2 78/3/2 83/3/2
f 83/2/2 79/2/2 84/2/2
f 80/3/2 81/3/2 85/3/2
f 85/3/2 81/3/2 86/3/2
f 87/3/2 88/3/2 89/3/2
f 89/3/2 88/3/2 90/3/2
f 91/2/2 92/2/2 93/2/2
f 93/2/2 92/2/2 94/2/2
f 95/2/2 96/2/2 99/2/2
f 99/2/2 96/2/2 100/2/2
f 97/2/2 98/2/2 101/2/2
f 101/2/2 98/2/2 102/2/2
f 103/2/2 104/2/2 105/2/2
f 105/2/2 104/2/2 106/2/2
f 107/2/2 108/2/2 111/2/2
f 111/2/2 108/2/2 112/2/2
f 109/2/2 110/2/2 113/2/2
f 113/2/2 110/2/2 114/2/2
f 115/2/2 116/2/2 117/2/2
f 117/2/2 116/2/2 118/2/2
f 119/2/2 120/2/2 121/2/2
f 121/2/2 120/2/2 122/2/2
f 125/2/3 124/2/3 123/2/3
f 126/2/3 124/2/3 125/2/3
f 129/2/3 128/2/3 127/2/3
f 130/2/3 128/2/3 129/2/3
f 133/2/3 132/2/3 131/2/3
f 134/2/3 132/2/3 133/2/3
f 137/2/3 136/2/3 135/2/3
f 138/2/3 136/2/3 137/2/3
f 141/3/3 140/3/3 139/3/3
f 142/3/3 140/3/3 141/3/3
f 145/2/3 144/2/3 143/2/3
f 146/2/3 144/2/3 145/2/3
f 149/2/3 148/2/3 147/2/3
f 150/2/3 148/2/3 149/2/3
f 153/2/3 152/2/3 151/2/3
f 154/2/3 152/2/3 153/2/3
f 157/3/3 156/3/3 155/3/3
f 158/3/3 156/3/3 157/3/3
f 161/2/3 160/2/3 159/2/3
f 162/2/3 160/2/3 161/2/3
f 163/4/3 162/4/3 161/4/3
f 164/4/3 162/4/3 163/4/3
f 168/2/3 166/2/3 165/2/3
f 169/1/3 167/1/3 166/1/3
f 169/2/3 166/2/3 168/2/3
f 170/1/3 167/1/3 169/1/3
f 173/2/3 172/2/3 171/2/3
f 174/2/3 172/2/3 173/2/3
f 177/2/3 176/2/3 175/2/3
f 178/2/3 176/2/3 177/2/3
f 181/2/3 180/2/3 179/2/3
f 182/2/3 180/2/3 181/2/3
f 185/2/3 184/2/3 183/2/3
f 186/2/3 184/2/3 185/2/3
f 189/2/3 188/2/3 187/2/3
f 190/2/3 188/2/3 189/2/3
f 193/2/3 192/2/3 191/2/3
f 194/2/3 192/2/3 193/2/3
f 195/3/4 196/3/4 197/3/4
f 197/3/4 196/3/4 198/3/4
f 199/2/4 200/2/4 201/2/4
f 201/2/4 200/2/4 202/2/4
f 203/2/4 204/2/4 205/2/4
f 205/2/4 204/2/4 206/2/4
f 207/2/4 208/2/4 209/2/4
f 209/2/4 208/2/4 210/2/4
f 211/2/4 212/2/4 213/2/4
f 213/2/4 212/2/4 214/2/4
f 215/2/4 216/2/4 217/2/4
f 217/2/4 216/2/4 218/2/4
f 219/2/4 220/2/4 221/2/4
f 221/2/4 220/2/4 222/2/4
f 223/2/4 224/2/4 225/2/4
f 225/2/4 224/2/4 226/2/4
f 227/2/4 228/2/4 230/2/4
f 228/1/4 229/1/4 231/1/4
f 230/2/4 228/2/4 231/2/4
f 231/1/4 229/1/4 232/1/4
f 233/2/4 234/2/4 235/2/4
f 235/2/4 234/2/4 236/2/4
f 237/2/4 238/2/4 239/2/4
f 239/2/4 238/2/4 240/2/4
f 239/4/4 240/4/4 241/4/4
f 241/4/4 240/4/4 242/4/4
f 243/3/4 244/3/4 245/3/4
f 245/3/4 244/3/4 246/3/4
f 249/2/5 248/2/5 247/2/5
f 252/2/5 249/2/5 247/2/5
f 252/2/5 250/2/5 249/2/5
f 253/2/5 250/2/5 252/2/5
f 257/2/5 252/2/5 251/2/5
f 257/2/5 253/2/5 252/2/5
f 257/2/5 254/2/5 253/2/5
f 260/2/5 257/2/5 251/2/5
f 260/2/5 258/2/5 257/2/5
f 261/2/5 258/2/5 260/2/5
f 264/3/5 256/3/5 255/3/5
f 265/3/5 256/3/5 264/3/5
f 266/2/5 262/2/5 261/2/5
f 266/2/5 260/2/5 259/2/5
f 266/2/5 261/2/5 260/2/5
f 269/2/5 267/2/5 266/2/5
f 269/4/5 268/4/5 267/4/5
f 270/4/5 268/4/5 269/4/5
f 271/3/5 264/3/5 263/3/5
f 272/3/5 264/3/5 271/3/5
f 275/2/5 272/2/5 271/2/5
f 275/2/5 270/2/5 269/2/5
f 275/2/5 271/2/5 270/2/5
f 276/2/5 274/2/5 273/2/5
f 277/2/5 274/2/5 276/2/5
f 279/2/5 276/2/5 275/2/5
f 279/2/5 278/2/5 277/2/5
f 279/2/5 277/2/5 276/2/5
f 281/2/5 275/2/5 269/2/5
f 281/2/5 280/2/5 279/2/5
f 281/2/5 279/2/5 275/2/5
f 281/2/5 266/2/5 259/2/5
f 281/2/5 269/2/5 266/2/5
f 282/2/5 280/2/5 281/2/5
f 283/2/5 280/2/5 282/2/5
f 285/2/5 284/2/5 283/2/5
f 285/2/5 283/2/5 282/2/5
f 287/2/5 285/2/5 282/2/5
f 287/2/5 286/2/5 285/2/5
f 288/2/5 286/2/5 287/2/5
f 289/2/5 286/2/5 288/2/5
f 290/2/5 286/2/5 289/2/5
f 291/2/5 289/2/5 288/2/5
f 292/2/5 289/2/5 291/2/5
f 293/2/5 291/2/5 288/2/5
f 294/2/5 291/2/5 293/2/5
f 295/2/5 291/2/5 294/2/5
f 296/2/5 291/2/5 295/2/5
f 297/2/5 295/2/5 294/2/5
f 298/2/5 295/2/5 297/2/5
f 299/2/5 295/2/5 298/2/5
f 300/2/5 295/2/5 299/2/5
f 301/2/5 295/2/5 300/2/5
f 302/2/5 295/2/5 301/2/5
f 303/2/5 295/2/5 302/2/5
f 304/2/5 299/2/5 298/2/5
f 305/4/5 300/4/5 299/4/5
f 305/2/5 299/2/5 304/2/5
f 306/4/5 300/4/5 305/4/5
f 307/3/5 302/3/5 301/3/5
f 308/3/5 302/3/5 307/3/5
f 309/2/6 310/2/6 311/2/6
f 309/2/6 311/2/6 314/2/6
f 311/2/6 312/2/6 314/2/6
f 314/2/6 312/2/6 315/2/6
f 313/2/6 314/2/6 319/2/6
f 314/2/6 315/2/6 319/2/6
f 315/2/6 316/2/6 319/2/6
f 313/2/6 319/2/6 322/2/6
f 319/2/6 320/2/6 322/2/6
f 322/2/6 320/2/6 323/2/6
f 317/3/6 318/3/6 326/3/6
f 326/3/6 318/3/6 327/3/6
f 323/2/6 324/2/6 328/2/6
f 321/2/6 322/2/6 328/2/6
f 322/2/6 323/2/6 328/2/6
f 329/4/6 330/4/6 331/4/6
f 325/3/6 326/3/6 332/3/6
f 332/3/6 326/3/6 333/3/6
f 332/2/6 333/2/6 336/2/6
f 334/2/6 335/2/6 337/2/6
f 337/2/6 335/2/6 338/2/6
f 321/2/6 328/2/6 340/2/6
f 328/2/6 329/2/6 340/2/6
f 329/4/6 331/4/6 341/4/6
f 340/2/6 329/2/6 341/2/6
f 331/1/6 332/1/6 342/1/6
f 341/4/6 331/4/6 342/4/6
f 332/2/6 336/2/6 343/2/6
f 342/1/6 332/1/6 343/1/6
f 338/2/6 339/2/6 343/2/6
f 336/2/6 337/2/6 343/2/6
f 337/2/6 338/2/6 343/2/6
f 343/2/6 339/2/6 344/2/6
f 321/2/6 340/2/6 346/2/6
f 346/2/6 340/2/6 347/2/6
f 344/2/6 345/2/6 348/2/6
f 342/2/6 343/2/6 348/2/6
f 343/2/6 344/2/6 348/2/6
f 347/2/6 340/2/6 350/2/6
f 340/4/6 341/4/6 350/4/6
f 341/1/6 342/1/6 351/1/6
f 350/4/6 341/4/6 351/4/6
f 348/2/6 349/2/6 352/2/6
f 351/1/6 342/1/6 352/1/6
f 342/2/6 348/2/6 352/2/6
f 352/2/6 349/2/6 353/2/6
f 353/2/6 349/2/6 354/2/6
f 350/2/6 351/2/6 356/2/6
f 351/4/6 352/4/6 356/4/6
f 352/1/6 353/1/6 357/1/6
f 356/4/6 352/4/6 357/4/6
f 354/2/6 355/2/6 358/2/6
f 357/1/6 353/1/6 358/1/6
f 353/2/6 354/2/6 358/2/6
f 358/2/6 355/2/6 359/2/6
f 347/2/6 350/2/6 360/2/6
f 356/2/6 357/2/6 360/2/6
f 350/2/6 356/2/6 360/2/6
f 360/2/6 357/2/6 361/2/6
f 359/2/6 355/2/6 362/2/6
f 362/2/6 355/2/6 363/2/6
f 361/2/6 357/2/6 364/2/6
f 357/4/6 358/4/6 365/4/6
f 364/2/6 357/2/6 365/2/6
f 358/1/6 359/1/6 366/1/6
f 365/4/6 358/4/6 366/4/6
f 359/2/6 362/2/6 367/2/6
f 366/1/6 359/1/6 367/1/6
f 367/2/6 362/2/6 368/2/6
f 368/2/6 362/2/6 369/2/6
f 361/2/6 364/2/6 370/2/6
f 370/2/6 364/2/6 371/2/6
f 366/2/6 367/2/6 372/2/6
f 367/2/6 368/2/6 372/2/6
f 372/2/6 368/2/6 373/2/6
f 371/2/6 364/2/6 374/2/6
f 374/2/6 364/2/6 375/2/6
f 364/4/6 365/4/6 376/4/6
f 365/1/6 366/1/6 376/1/6
f 366/2/6 372/2/6 377/2/6
f 376/1/6 366/1/6 377/1/6
f 377/2/6 372/2/6 378/2/6
f 378/2/6 372/2/6 379/2/6
f 375/2/6 364/2/6 380/2/6
f 364/4/6 376/4/6 381/4/6
f 380/2/6 364/2/6 381/2/6
f 381/4/6 376/4/6 382/4/6
f 377/3/6 378/3/6 383/3/6
f 383/3/6 378/3/6 384/3/6
