# MagicaVoxel @ Ephtracy

# group
o 

# material
mtllib Pie.mtl
usemtl palette

# normals
vn -1 0 0
vn 1 0 0
vn 0 0 1
vn 0 0 -1
vn 0 -1 0
vn 0 1 0

# texcoords
vt 0.0332031 0.5
vt 0.529297 0.5

# verts
v -0.9 0.1 -1.6
v -0.9 0.1 -1.8
v -0.9 0.1 -2
v -0.9 0.2 -1.6
v -0.9 0.2 -1.8
v -0.9 0.4 -1.6
v -0.9 0.4 -1.8
v -0.9 0.6 -1.6
v -0.9 0.6 -1.8
v -0.9 0.7 -1.6
v -0.9 0.7 -2
v -0.4 0.5 -1.6
v -0.4 0.5 -1.8
v -0.4 0.5 -1.9
v -0.4 0.5 -2
v -0.4 0.7 -1.6
v -0.4 0.7 -2
v -0.3 0.4 -1.6
v -0.3 0.4 -1.8
v -0.3 0.4 -1.9
v -0.3 0.4 -2
v -0.3 0.5 -1.6
v -0.3 0.5 -1.8
v -0.3 0.5 -1.9
v -0.3 0.5 -2
v 0.1 0.1 -1.6
v 0.1 0.1 -2
v 0.1 0.4 -1.6
v 0.1 0.4 -2
v -0.9 0.1 -1.6
v -0.9 0.2 -1.6
v -0.9 0.4 -1.6
v -0.9 0.6 -1.6
v -0.9 0.7 -1.6
v -0.8 0.1 -1.6
v -0.8 0.2 -1.6
v -0.8 0.4 -1.6
v -0.8 0.6 -1.6
v -0.7 0.3 -1.6
v -0.7 0.4 -1.6
v -0.7 0.5 -1.6
v -0.7 0.6 -1.6
v -0.6 0.3 -1.6
v -0.6 0.4 -1.6
v -0.6 0.5 -1.6
v -0.6 0.6 -1.6
v -0.4 0.3 -1.6
v -0.4 0.4 -1.6
v -0.4 0.5 -1.6
v -0.4 0.7 -1.6
v -0.3 0.3 -1.6
v -0.3 0.4 -1.6
v -0.3 0.5 -1.6
v -0.1 0.3 -1.6
v -0.1 0.4 -1.6
v 0 0.3 -1.6
v 0 0.4 -1.6
v 0.1 0.1 -1.6
v 0.1 0.4 -1.6
v -0.9 0.1 -2
v -0.9 0.7 -2
v -0.8 0.3 -2
v -0.8 0.4 -2
v -0.7 0.3 -2
v -0.7 0.4 -2
v -0.6 0.2 -2
v -0.6 0.3 -2
v -0.5 0.2 -2
v -0.5 0.3 -2
v -0.4 0.5 -2
v -0.4 0.7 -2
v -0.3 0.2 -2
v -0.3 0.3 -2
v -0.3 0.4 -2
v -0.3 0.5 -2
v -0.2 0.2 -2
v -0.2 0.3 -2
v -0.1 0.3 -2
v -0.1 0.4 -2
v 0 0.3 -2
v 0 0.4 -2
v 0.1 0.1 -2
v 0.1 0.4 -2
v -0.9 0.1 -1.6
v -0.8 0.1 -1.6
v 0.1 0.1 -1.6
v -0.9 0.1 -1.8
v -0.8 0.1 -1.8
v -0.9 0.1 -2
v 0.1 0.1 -2
v -0.3 0.4 -1.6
v -0.1 0.4 -1.6
v 0 0.4 -1.6
v 0.1 0.4 -1.6
v -0.3 0.4 -1.8
v -0.2 0.4 -1.8
v -0.1 0.4 -1.8
v 0 0.4 -1.8
v -0.3 0.4 -1.9
v -0.2 0.4 -1.9
v -0.1 0.4 -1.9
v 0 0.4 -1.9
v -0.3 0.4 -2
v -0.1 0.4 -2
v 0 0.4 -2
v 0.1 0.4 -2
v -0.4 0.5 -1.6
v -0.3 0.5 -1.6
v -0.4 0.5 -1.8
v -0.3 0.5 -1.8
v -0.4 0.5 -1.9
v -0.3 0.5 -1.9
v -0.4 0.5 -2
v -0.3 0.5 -2
v -0.9 0.7 -1.6
v -0.4 0.7 -1.6
v -0.9 0.7 -2
v -0.4 0.7 -2

# faces
f 4/2/1 2/2/1 1/2/1
f 5/1/1 3/1/1 2/1/1
f 5/2/1 2/2/1 4/2/1
f 6/1/1 5/1/1 4/1/1
f 7/1/1 3/1/1 5/1/1
f 7/1/1 5/1/1 6/1/1
f 8/2/1 7/2/1 6/2/1
f 9/1/1 3/1/1 7/1/1
f 9/2/1 7/2/1 8/2/1
f 10/1/1 9/1/1 8/1/1
f 11/1/1 3/1/1 9/1/1
f 11/1/1 9/1/1 10/1/1
f 12/1/2 13/1/2 16/1/2
f 14/1/2 15/1/2 16/1/2
f 13/1/2 14/1/2 16/1/2
f 16/1/2 15/1/2 17/1/2
f 18/1/2 19/1/2 22/1/2
f 19/2/2 20/2/2 23/2/2
f 22/1/2 19/1/2 23/1/2
f 20/1/2 21/1/2 24/1/2
f 23/2/2 20/2/2 24/2/2
f 24/1/2 21/1/2 25/1/2
f 26/1/2 27/1/2 28/1/2
f 28/1/2 27/1/2 29/1/2
f 35/2/3 31/2/3 30/2/3
f 36/1/3 32/1/3 31/1/3
f 36/2/3 31/2/3 35/2/3
f 37/2/3 33/2/3 32/2/3
f 37/1/3 32/1/3 36/1/3
f 38/1/3 34/1/3 33/1/3
f 38/2/3 33/2/3 37/2/3
f 39/1/3 37/1/3 36/1/3
f 39/1/3 36/1/3 35/1/3
f 39/1/3 38/1/3 37/1/3
f 40/1/3 38/1/3 39/1/3
f 41/1/3 38/1/3 40/1/3
f 42/1/3 34/1/3 38/1/3
f 42/1/3 38/1/3 41/1/3
f 43/1/3 39/1/3 35/1/3
f 43/2/3 40/2/3 39/2/3
f 44/1/3 41/1/3 40/1/3
f 44/2/3 40/2/3 43/2/3
f 45/2/3 42/2/3 41/2/3
f 45/1/3 41/1/3 44/1/3
f 46/1/3 34/1/3 42/1/3
f 46/2/3 42/2/3 45/2/3
f 47/1/3 43/1/3 35/1/3
f 47/1/3 45/1/3 44/1/3
f 47/1/3 46/1/3 45/1/3
f 47/1/3 44/1/3 43/1/3
f 48/1/3 46/1/3 47/1/3
f 49/1/3 46/1/3 48/1/3
f 50/1/3 34/1/3 46/1/3
f 50/1/3 46/1/3 49/1/3
f 51/1/3 47/1/3 35/1/3
f 51/2/3 48/2/3 47/2/3
f 52/1/3 49/1/3 48/1/3
f 52/2/3 48/2/3 51/2/3
f 53/1/3 49/1/3 52/1/3
f 54/1/3 51/1/3 35/1/3
f 54/1/3 52/1/3 51/1/3
f 55/1/3 52/1/3 54/1/3
f 56/1/3 54/1/3 35/1/3
f 56/2/3 55/2/3 54/2/3
f 57/2/3 55/2/3 56/2/3
f 58/1/3 56/1/3 35/1/3
f 58/1/3 57/1/3 56/1/3
f 59/1/3 57/1/3 58/1/3
f 60/1/4 61/1/4 62/1/4
f 62/1/4 61/1/4 63/1/4
f 60/1/4 62/1/4 64/1/4
f 62/2/4 63/2/4 64/2/4
f 63/1/4 61/1/4 65/1/4
f 64/2/4 63/2/4 65/2/4
f 60/1/4 64/1/4 66/1/4
f 64/1/4 65/1/4 66/1/4
f 66/1/4 65/1/4 67/1/4
f 60/1/4 66/1/4 68/1/4
f 66/2/4 67/2/4 68/2/4
f 67/1/4 65/1/4 69/1/4
f 68/2/4 67/2/4 69/2/4
f 65/1/4 61/1/4 70/1/4
f 69/1/4 65/1/4 70/1/4
f 68/1/4 69/1/4 70/1/4
f 70/1/4 61/1/4 71/1/4
f 60/1/4 68/1/4 72/1/4
f 68/1/4 70/1/4 72/1/4
f 72/1/4 70/1/4 73/1/4
f 73/1/4 70/1/4 74/1/4
f 74/1/4 70/1/4 75/1/4
f 60/1/4 72/1/4 76/1/4
f 72/2/4 73/2/4 76/2/4
f 73/1/4 74/1/4 77/1/4
f 76/2/4 73/2/4 77/2/4
f 76/1/4 77/1/4 78/1/4
f 77/1/4 74/1/4 78/1/4
f 78/1/4 74/1/4 79/1/4
f 76/1/4 78/1/4 80/1/4
f 78/2/4 79/2/4 80/2/4
f 80/2/4 79/2/4 81/2/4
f 60/1/4 76/1/4 82/1/4
f 76/1/4 80/1/4 82/1/4
f 80/1/4 81/1/4 82/1/4
f 82/1/4 81/1/4 83/1/4
f 87/2/5 85/2/5 84/2/5
f 88/1/5 86/1/5 85/1/5
f 88/2/5 85/2/5 87/2/5
f 89/1/5 88/1/5 87/1/5
f 90/1/5 86/1/5 88/1/5
f 90/1/5 88/1/5 89/1/5
f 91/1/6 92/1/6 95/1/6
f 95/1/6 92/1/6 96/1/6
f 92/2/6 93/2/6 97/2/6
f 96/1/6 92/1/6 97/1/6
f 93/1/6 94/1/6 98/1/6
f 97/2/6 93/2/6 98/2/6
f 95/2/6 96/2/6 99/2/6
f 96/1/6 97/1/6 100/1/6
f 99/2/6 96/2/6 100/2/6
f 97/1/6 98/1/6 100/1/6
f 100/1/6 98/1/6 101/1/6
f 98/1/6 94/1/6 102/1/6
f 101/1/6 98/1/6 102/1/6
f 100/1/6 101/1/6 103/1/6
f 99/1/6 100/1/6 103/1/6
f 101/2/6 102/2/6 104/2/6
f 103/1/6 101/1/6 104/1/6
f 102/1/6 94/1/6 105/1/6
f 104/2/6 102/2/6 105/2/6
f 105/1/6 94/1/6 106/1/6
f 107/1/6 108/1/6 109/1/6
f 109/1/6 108/1/6 110/1/6
f 109/2/6 110/2/6 111/2/6
f 111/2/6 110/2/6 112/2/6
f 111/1/6 112/1/6 113/1/6
f 113/1/6 112/1/6 114/1/6
f 115/1/6 116/1/6 117/1/6
f 117/1/6 116/1/6 118/1/6
